<?xml version="1.0" encoding="iso-8859-1"?>
<!-- Generator: Adobe Illustrator 19.0.0, SVG Export Plug-In . SVG Version: 6.00 Build 0)  -->
<svg version="1.1" id="Capa_1" xmlns="http://www.w3.org/2000/svg" xmlns:xlink="http://www.w3.org/1999/xlink" x="0px" y="0px"
	 viewBox="0 0 512.012 512.012" style="enable-background:new 0 0 512.012 512.012;" xml:space="preserve">
<path style="fill:#CCCCCC;" d="M308.068,56c-15.439,0-28-12.561-28-28s12.561-28,28-28s28,12.561,28,28S323.507,56,308.068,56z"/>
<path style="fill:#B3B3B3;" d="M308.068,56c0-16.157,0-41,0-56c15.439,0,28,12.561,28,28S323.507,56,308.068,56z"/>
<polygon style="fill:#FEC674;" points="326.171,216.192 263.682,326.425 348.544,326.425 408.508,216.192 "/>
<path style="fill:#FEDCA9;" d="M369.683,216.192l-35.946,61.298c-8.646,14.743-24.457,23.801-41.548,23.801l0,0
	c-26.601,0-48.165-21.564-48.165-48.165v-36.933h-58.922c0,0,2.948,47.644-7.816,63.331c-29.421,42.873-26.809,78.743-26.809,78.743
	l-28.6,32.18L174.224,465l42.574-28.342l96.166-55.751c33.818-19.606,61.682-48.022,80.62-82.219l45.687-82.497h-69.588V216.192z"/>
<g>
	
		<rect x="71.761" y="377.478" transform="matrix(-0.6517 -0.7585 0.7585 -0.6517 -66.3031 812.4402)" style="fill:#82D2FF;" width="163.263" height="87.932"/>
	<rect x="37.658" y="31.626" style="fill:#82D2FF;" width="58.8" height="30"/>
	<rect x="37.658" y="151.63" style="fill:#82D2FF;" width="58.8" height="30"/>
	<rect x="9.969" y="91.63" style="fill:#82D2FF;" width="86.49" height="30"/>
</g>
<path style="fill:#E6E6E6;" d="M484.417,216.192H131.719c0-97.239,79.11-176.349,176.349-176.349S484.417,118.953,484.417,216.192z"
	/>
<g>
	<path style="fill:#CCCCCC;" d="M484.417,216.192H308.068c0-97.239,0-124.565,0-176.349
		C405.307,39.843,484.417,118.953,484.417,216.192z"/>
	<rect x="114.103" y="201.19" style="fill:#CCCCCC;" width="387.94" height="30"/>
</g>
<rect x="308.543" y="201.19" style="fill:#B3B3B3;" width="193.49" height="30"/>
<circle style="fill:#FFFFFF;" cx="178.483" cy="452" r="15"/>
<g>
</g>
<g>
</g>
<g>
</g>
<g>
</g>
<g>
</g>
<g>
</g>
<g>
</g>
<g>
</g>
<g>
</g>
<g>
</g>
<g>
</g>
<g>
</g>
<g>
</g>
<g>
</g>
<g>
</g>
</svg>
